<?xml version="1.0" encoding="utf-8"?>
<!-- Generator: Adobe Illustrator 25.2.1, SVG Export Plug-In . SVG Version: 6.00 Build 0)  -->
<svg version="1.1" id="Calque_1" xmlns="http://www.w3.org/2000/svg" xmlns:xlink="http://www.w3.org/1999/xlink" x="0px" y="0px"
	 viewBox="0 0 157.8 158.2" style="enable-background:new 0 0 157.8 158.2;" xml:space="preserve">
<style type="text/css">
	.st0{fill:none;stroke:#D39C0A;stroke-width:0.577;stroke-linecap:square;stroke-linejoin:round;stroke-miterlimit:7;}
	.st1{fill-rule:evenodd;clip-rule:evenodd;fill:#D39C0A;}
	.st2{fill:none;stroke:#D39C0A;stroke-width:1.049;}
</style>
<g id="logo-illustration">
	<g>
		<path class="st0" d="M136.6,62.6c1.5-1,2.9-2.8,2.9-2.8s-1.6-0.9-5.7-0.7c-2.8,0.2-7.4,2.3-7.4,2.3c3.3-1.5,3.3-1.5,5.1-3
			c0.7-0.6,1.3-1.4,1.3-1.4s-1.5-0.3-3-0.2c-1.7,0.2-4.4,1.3-4.4,1.3s3.7-1.5,6.1-3.3c2.9-2.1,4.2-4.2,4.2-4.2s-1.4-0.9-5.2,0
			c-2.2,0.5-6.2,2.2-6.2,2.2s6-3.5,9-6.4c2.6-2.6,3-4.2,3-4.2s-0.8-0.7-4.2,0.2c-2.7,0.7-6.2,2.5-6.2,2.5s2.6-1.9,6.1-5.1
			c3.9-3.6,4.9-6.9,4.9-6.9s-1.8-0.4-5.4,1.1c-2.1,0.8-6.9,4.3-6.9,4.3s4.9-4.6,7.5-8.2c3.1-4.3,3.3-6.9,3.3-6.9s-1.7-0.5-6.8,3.1
			c-4.4,3.1-11,10.8-11,10.8s5.4-6.8,7.3-10.6c1.3-2.6,1.4-5.3,1.4-5.3s-2.8,0.7-6.9,4.3c-3.2,2.8-7.9,9.5-7.9,9.5s2.9-5.1,3.8-7.9
			c1-3,0.9-5.1,0.9-5.1s-2.8,1.2-5.5,3.7c-2.9,2.6-6.6,9.3-6.6,9.3l2.5-4.7c0,0,0.5-1,1-3.2c0.4-1.8,0.1-4,0.1-4s-1.8,0.5-4.5,3.5
			c-1.8,2.1-3.5,6.9-3.5,6.9c1.3-3.4,1.3-3.4,1.5-5.7c0.1-1-0.1-1.9-0.1-1.9s-1.3,0.8-2.2,2c-1.1,1.3-2.2,4-2.2,4s1.5-3.6,2-6.6
			c0.6-3.5,0-5.9,0-5.9S97,19.8,95,23.1C93.8,25,92.2,29,92.2,29S94,22.3,94,18.1c0-3.7-0.8-5.1-0.8-5.1s-1.1,0.1-2.8,3.1
			c-1.4,2.4-2.6,6.2-2.6,6.2s0.5-3.2,0.7-7.9C88.8,9.1,87.1,6,87.1,6s-1.5,0.9-3.1,4.6c-0.9,2.1-1.9,7.9-1.9,7.9s0.2-6.7-0.5-11.1
			C80.8,2.2,79,0.2,79,0.2s-1.5,0.9-2.6,7c-0.9,5.3-0.1,15.4-0.1,15.4S75.4,14,73.9,9.9c-1-2.7-2.7-4.7-2.7-4.7s-1.5,2.5-1.8,7.9
			c-0.2,4.3,1.2,12.3,1.2,12.3s-1.5-5.7-2.8-8.3c-1.4-2.8-3-4.3-3-4.3s-0.7,1.8-0.8,5.4c-0.1,3.4,0.7,8.4,0.7,8.4s-0.5-3.1-2-5.4
			s-2.8-2.9-2.8-2.9S59,19.9,59.2,24c0.2,2.8,2.3,7.4,2.3,7.4c-1.5-3.3-1.5-3.3-3-5.1c-0.6-0.7-1.4-1.3-1.4-1.3s-0.3,1.5-0.2,3
			c0.2,1.7,1.3,4.4,1.3,4.4s-1.5-3.7-3.3-6.1c-2.1-2.9-4.2-4.2-4.2-4.2s-0.9,1.4,0,5.2c0.5,2.2,2.2,6.2,2.2,6.2s-3.5-6-6.4-8.9
			c-2.6-2.6-4.2-3-4.2-3s-0.7,0.8,0.2,4.2C43.2,28.5,45,32,45,32s-1.9-2.6-5.1-6.1C36.5,22,33.1,21,33.1,21s-0.4,1.8,1.1,5.4
			c0.8,2.1,4.3,6.9,4.3,6.9s-4.6-4.9-8.2-7.5c-4.3-3.1-6.9-3.3-6.9-3.3s-0.5,1.7,3.1,6.8c3.1,4.4,10.8,11,10.8,11s-6.8-5.4-10.6-7.3
			c-2.6-1.3-5.3-1.4-5.3-1.4s0.7,2.8,4.3,6.9c2.8,3.2,9.5,7.9,9.5,7.9s-5.1-2.9-7.9-3.8c-3-1-5.1-0.9-5.1-0.9s1.2,2.8,3.7,5.5
			c2.7,2.9,9.3,6.6,9.3,6.6l-4.7-2.5c0,0-1-0.5-3.2-1c-1.8-0.4-4-0.1-4-0.1s0.5,1.8,3.5,4.5c2.1,1.8,6.9,3.5,6.9,3.5
			c-3.4-1.3-3.4-1.3-5.7-1.5c-1-0.1-1.9,0.1-1.9,0.1s0.8,1.3,2,2.2c1.3,1.1,4,2.2,4,2.2s-3.6-1.5-6.6-2c-3.5-0.6-5.9,0-5.9,0
			s0.4,1.7,3.7,3.7c1.9,1.2,5.9,2.8,5.9,2.8s-6.7-1.8-10.9-1.8c-3.7,0-5.1,0.8-5.1,0.8s0.1,1.1,3.1,2.8c2.4,1.4,6.2,2.6,6.2,2.6
			s-3.2-0.5-7.9-0.7c-5.3-0.3-8.4,1.4-8.4,1.4s0.9,1.5,4.6,3.1c2.1,0.9,7.9,1.9,7.9,1.9S12,75.6,7.6,76.3c-5.2,0.8-7.2,2.6-7.2,2.6
			s0.9,1.5,7,2.6c5.3,0.9,15.4,0.1,15.4,0.1s-8.6,0.9-12.7,2.4c-2.7,1-4.7,2.7-4.7,2.7s2.5,1.5,7.9,1.8c4.3,0.2,12.3-1.2,12.3-1.2
			s-5.7,1.5-8.3,2.8c-2.8,1.4-4.3,3-4.3,3s1.8,0.8,5.4,0.8c3,0,11.1-1.8,11.1-1.8s-4.9,1.4-7.6,3c-2.6,1.6-3.8,3.2-3.8,3.2
			s1.6,0.9,5.7,0.7c2.8-0.2,7.4-2.3,7.4-2.3c-3.3,1.5-3.3,1.5-5.1,3c-0.7,0.6-1.3,1.4-1.3,1.4s1.5,0.3,3,0.2
			c1.7-0.2,4.4-1.3,4.4-1.3s-3.7,1.5-6.1,3.3c-2.9,2.1-4.2,4.2-4.2,4.2s1.4,0.9,5.2,0c2.2-0.5,6.2-2.2,6.2-2.2s-6,3.5-8.9,6.4
			c-2.6,2.6-3,4.2-3,4.2s0.8,0.7,4.2-0.2c2.7-0.7,6.2-2.5,6.2-2.5s-2.6,1.9-6.1,5.1c-3.9,3.6-4.9,6.9-4.9,6.9s1.8,0.4,5.4-1.1
			c2.1-0.8,6.9-4.3,6.9-4.3s-4.9,4.6-7.5,8.2c-3.1,4.3-3.3,6.9-3.3,6.9s1.7,0.5,6.8-3.1c4.4-3.1,11-10.8,11-10.8s-5.4,6.8-7.3,10.6
			c-1.3,2.6-1.4,5.3-1.4,5.3s2.8-0.7,6.9-4.3c3.2-2.8,7.9-9.5,7.9-9.5s-2.9,5.1-3.8,7.9c-1,3-0.9,5.1-0.9,5.1s2.8-1.2,5.5-3.7
			c2.9-2.6,6.6-9.3,6.6-9.3l-2.5,4.7c0,0-0.5,1-1,3.2c-0.4,1.8-0.1,4-0.1,4s1.8-0.5,4.5-3.5c1.8-2.1,3.5-6.9,3.5-6.9
			c-1.3,3.4-1.3,3.4-1.5,5.7c-0.1,1,0.1,1.9,0.1,1.9s1.3-0.8,2.2-2c1.1-1.3,2.2-4,2.2-4s-1.5,3.6-2,6.6c-0.6,3.5,0,5.9,0,5.9
			s1.7-0.4,3.7-3.7c1.2-1.9,2.8-5.9,2.8-5.9s-1.8,6.7-1.8,10.9c0,3.7,0.8,5.1,0.8,5.1s1.1-0.1,2.8-3.1c1.4-2.4,2.6-6.2,2.6-6.2
			s-0.5,3.2-0.7,7.9c-0.3,5.3,1.4,8.4,1.4,8.4s1.5-0.9,3.1-4.6c0.9-2.1,1.9-7.9,1.9-7.9s-0.2,6.7,0.5,11.1c0.8,5.2,2.6,7.2,2.6,7.2
			s1.5-0.9,2.6-7c0.9-5.3,0.1-15.4,0.1-15.4s0.9,8.6,2.4,12.7c1,2.7,2.7,4.7,2.7,4.7s1.5-2.5,1.8-7.9c0.2-4.3-1.2-12.3-1.2-12.3
			s1.5,5.7,2.8,8.3c1.4,2.8,3,4.3,3,4.3s0.7-1.8,0.8-5.4c0.1-3.4-0.7-8.4-0.7-8.4s0.5,3.1,2,5.4c1.5,2.3,2.8,2.9,2.8,2.9
			s0.9-1.6,0.7-5.7c-0.2-2.8-2.3-7.4-2.3-7.4c1.5,3.3,1.5,3.3,3,5.1c0.6,0.7,1.4,1.3,1.4,1.3s0.3-1.5,0.2-3
			c-0.2-1.7-1.3-4.4-1.3-4.4s1.5,3.7,3.3,6.1c2.1,2.9,4.2,4.2,4.2,4.2s0.9-1.4,0-5.2c-0.5-2.2-2.2-6.2-2.2-6.2s3.5,6,6.4,8.9
			c2.6,2.6,4.2,3,4.2,3s0.7-0.8-0.2-4.2c-0.7-2.7-2.5-6.2-2.5-6.2s1.9,2.6,5.1,6.1c3.6,3.9,6.9,4.9,6.9,4.9s0.4-1.8-1.1-5.4
			c-0.8-2.1-4.3-6.9-4.3-6.9s4.6,4.9,8.2,7.5c4.3,3.1,6.9,3.3,6.9,3.3s0.5-1.7-3.1-6.8c-3.1-4.4-10.8-11-10.8-11s6.8,5.4,10.6,7.3
			c2.6,1.3,5.3,1.4,5.3,1.4s-0.7-2.8-4.3-6.9c-2.8-3.2-9.5-7.9-9.5-7.9s5.1,2.9,7.9,3.8c3,1,5.1,0.9,5.1,0.9s-1.2-2.8-3.7-5.5
			c-2.7-2.9-9.3-6.6-9.3-6.6l4.7,2.5c0,0,1,0.5,3.2,1c1.8,0.4,4,0.1,4,0.1s-0.5-1.8-3.5-4.5c-2.1-1.8-6.9-3.5-6.9-3.5
			c3.4,1.3,3.4,1.3,5.7,1.5c1,0.1,1.9-0.1,1.9-0.1s-0.8-1.3-2-2.2c-1.3-1.1-4-2.2-4-2.2s3.6,1.5,6.6,2c3.5,0.6,5.9,0,5.9,0
			s-0.4-1.7-3.7-3.7c-1.9-1.2-5.9-2.8-5.9-2.8s6.7,1.8,10.9,1.8c3.7,0,5.1-0.8,5.1-0.8s-0.1-1.1-3.1-2.8c-2.4-1.4-6.2-2.6-6.2-2.6
			s3.2,0.5,7.9,0.7c5.3,0.3,8.4-1.4,8.4-1.4s-0.9-1.5-4.6-3.1c-2.1-0.9-7.9-1.9-7.9-1.9s6.7,0.2,11.1-0.5c5.2-0.8,7.2-2.6,7.2-2.6
			s-0.9-1.5-7-2.6c-5.3-0.9-15.4-0.1-15.4-0.1s8.6-0.9,12.7-2.4c2.7-1,4.7-2.7,4.7-2.7s-2.5-1.5-7.9-1.8c-4.3-0.2-12.3,1.2-12.3,1.2
			s5.7-1.5,8.3-2.8c2.8-1.4,4.3-3,4.3-3s-1.8-0.8-5.4-0.8c-3,0-9.9,1.3-9.9,1.3S133.9,64.5,136.6,62.6z"/>
		<path class="st1" d="M150.4,79.2c-0.1,0-9.9,0.4-15.8,0.4c-4.3,0-8.6-0.2-11.1-0.3l0,0c0-0.6,0-1.2,0-1.8c3.7,0,11.8,0,16.6-1.6
			c3.3-1.1,7-2.8,7-2.9c0.1-0.1,0.2-0.2,0.1-0.3c0-0.1-0.2-0.2-0.3-0.2s-9.5,1.2-14.7,1.6c-3.2,0.3-6.8,0.4-8.9,0.5
			c-0.1-0.6-0.1-1.2-0.2-1.8c2.8-0.3,7.8-0.9,11.2-2.2c3.3-1.2,6.7-3.6,6.7-3.6c0.1-0.1,0.2-0.2,0.1-0.4c-0.1-0.1-0.2-0.2-0.3-0.2
			s-6.3,1.6-9.3,2.1c-2.7,0.5-6.6,1-8.8,1.3c-0.1-0.6-0.3-1.2-0.4-1.8l0,0c1-0.2,1.6-0.2,4.6-1.3c5.7-2,9.5-5.1,9.6-5.1
			c0.1-0.1,0.1-0.3,0.1-0.4c-0.1-0.1-0.2-0.2-0.4-0.1c0,0-2.1,0.9-8.6,3c-4.1,1.3-5.4,1.6-5.9,1.7c-0.1-0.4-0.3-0.9-0.5-1.3
			c1.2-0.5,2.9-1.3,5.1-2.5c1.3-0.7,3.5-2.8,3.6-2.9c0.1-0.1,0.1-0.3,0-0.4c-0.1-0.1-0.2-0.2-0.4-0.1c0,0-3.2,1.5-4.8,2.2l-4.3,1.6
			c-0.2-0.4-0.3-0.8-0.5-1.1c0.8-0.3,1.5-0.5,4-1.9c5.3-2.9,8.6-6.5,8.6-6.6c0.1-0.1,0.1-0.3,0-0.4c-0.1-0.1-0.3-0.1-0.4,0
			c0,0-1.9,1.3-8,4.3c-3.1,1.6-4.5,2.2-5.2,2.5c-0.3-0.5-0.6-1.1-0.8-1.6c1.7-0.9,4-2.5,7-4.7c4.5-3.4,7.7-7.4,7.7-7.4
			c0.1-0.1,0.1-0.3,0-0.4c-0.1-0.1-0.3-0.1-0.4,0l-8.8,5.8c-3.5,2.4-5.9,3.7-7,4.4c-0.3-0.4-0.6-0.9-0.9-1.3c2.1-1.5,6.6-5.2,10-8.3
			c4.2-3.8,7.5-9,7.5-9c0.1-0.1,0-0.3-0.1-0.4c-0.1-0.1-0.3-0.1-0.4,0c0,0-4.8,4.2-10.1,8.4c-3.6,2.9-7.2,5.5-8.9,6.6
			c-0.4-0.5-0.8-0.9-1.1-1.4c1.9-1.5,7.4-6.1,11.7-10.9c3.8-4.2,6.6-10.6,6.7-10.7c0.1-0.1,0-0.3-0.1-0.4s-0.3-0.1-0.4,0
			c-0.1,0.1-6.7,7.2-10.9,11.5c-3.6,3.6-7.3,6.9-8.9,8.3c-0.4-0.4-0.8-0.8-1.3-1.2c2.1-2,8.9-8.7,11.4-13.6c1.6-3.1,2.9-6.9,2.9-7
			s0-0.3-0.1-0.3c-0.1-0.1-0.3,0-0.4,0.1c-0.1,0.1-5.9,7.6-9.3,11.5c-2.5,3-5.4,6.1-6.7,7.4c-0.4-0.4-0.9-0.7-1.4-1.1
			c1.5-1.8,5.3-6.4,7-10.3c1.4-3.2,2.2-7.2,2.2-7.3c0-0.1-0.1-0.3-0.2-0.3c-0.1,0-0.3,0-0.3,0.1s-3.3,5.5-5.1,8.1s-4.9,6.6-6,8
			c-0.6-0.4-1.1-0.7-1.7-1.1c0.5-0.6,0.9-1.4,2-3.7c2.6-5.5,3.1-10.3,3.1-10.4s-0.1-0.3-0.2-0.3c-0.1,0-0.3,0-0.3,0.2
			c0,0-0.8,2.1-4,8.2c-1.5,2.8-2.3,4.2-2.7,4.9c-0.4-0.2-0.9-0.5-1.3-0.7c0.5-1.2,1-2.8,1.6-4.9c0.4-1.4,0.5-4.4,0.5-4.6
			c0-0.1-0.1-0.3-0.2-0.3c-0.1,0-0.3,0.1-0.3,0.2c0,0-1.2,3.4-1.9,5L96.3,38c-0.4-0.2-0.8-0.3-1.1-0.4c0.3-0.7,0.6-1.5,1.2-3.6
			c1.7-5.8,1.4-10.7,1.4-10.7c0-0.1-0.1-0.3-0.3-0.3c-0.1,0-0.3,0.1-0.3,0.2c0,0-0.4,2.2-2.6,8.7c-0.9,2.6-1.4,4.1-1.7,4.9
			c-0.6-0.2-1.2-0.4-1.8-0.5c0.5-1.8,1-4.4,1.5-7.7c0.8-5.6,0.2-10.7,0.2-10.7c0-0.1-0.1-0.3-0.3-0.3c-0.1,0-0.3,0.1-0.3,0.2
			l-2.1,10.3c-0.7,3.6-1.3,6.1-1.7,7.5c-0.5-0.1-1.1-0.2-1.6-0.3c0.4-2.8,0.9-8.1,1.1-12.3c0.3-5.6-1.1-11.6-1.1-11.7
			c0-0.1-0.2-0.2-0.3-0.2s-0.3,0.1-0.3,0.3c0,0.1-0.4,6.3-1.2,13.1c-0.5,4.2-1.1,8.2-1.5,10.4c-0.6-0.1-1.2-0.1-1.8-0.1
			c0.3-2.8,0.8-9.4,0.6-15.4c-0.2-5.7-2.8-12.2-2.9-12.3c-0.1-0.1-0.2-0.2-0.3-0.2s-0.2,0.2-0.2,0.3c0,0.1,0.4,9.9,0.4,15.8
			c0,4.6-0.2,9.3-0.4,11.7c-0.6,0-1.2,0-1.8,0c0.1-3.4,0.1-12.2-1.5-17.1c-1.1-3.3-2.8-7-2.9-7c-0.1-0.1-0.2-0.2-0.3-0.2
			s-0.2,0.2-0.2,0.3s1.2,9.5,1.6,14.7c0.3,3.5,0.4,7.4,0.5,9.5c-0.6,0.1-1.2,0.1-1.7,0.2c-0.2-2.6-0.9-8.1-2.3-11.8
			c-1.2-3.3-3.6-6.7-3.6-6.7c-0.1-0.1-0.2-0.2-0.4-0.1c-0.1,0.1-0.2,0.2-0.2,0.3c0,0.1,1.6,6.3,2.1,9.3c0.5,2.9,1.1,7.3,1.4,9.4
			c-0.5,0.1-1,0.2-1.5,0.4v-0.2c-0.2-1.1-0.2-1.6-1.3-4.6c-2-5.7-5.1-9.5-5.1-9.6c-0.1-0.1-0.3-0.1-0.4-0.1
			c-0.1,0.1-0.2,0.2-0.1,0.4c0,0,0.9,2.1,3,8.6c1.4,4.6,1.7,5.7,1.7,6c-0.4,0.1-0.9,0.3-1.3,0.4c-0.5-1.3-1.4-3-2.6-5.2
			c-0.7-1.3-2.8-3.5-2.9-3.6s-0.3-0.1-0.4,0s-0.2,0.2-0.1,0.4c0,0,1.5,3.2,2.2,4.8l1.7,4.4c-0.4,0.2-0.8,0.3-1.1,0.5
			c-0.3-0.9-0.5-1.5-1.9-4c-2.9-5.3-6.5-8.6-6.6-8.6c-0.1-0.1-0.3-0.1-0.4,0s-0.1,0.3,0,0.4c0,0,1.3,1.9,4.3,8
			c1.6,3.2,2.2,4.6,2.5,5.3c-0.5,0.3-1.1,0.5-1.6,0.8c-0.9-1.7-2.5-4-4.7-7.1c-3.4-4.5-7.4-7.7-7.4-7.7c-0.1-0.1-0.3-0.1-0.4,0
			s-0.1,0.3,0,0.4l5.8,8.8c2.4,3.6,3.8,5.9,4.4,7.1c-0.4,0.3-0.9,0.5-1.3,0.8c-1.5-2.1-5.2-6.6-8.3-10c-3.8-4.2-9-7.5-9-7.5
			c-0.1-0.1-0.3,0-0.4,0.1s-0.1,0.3,0,0.4c0,0,4.2,4.8,8.4,10.1c2.9,3.6,5.5,7.3,6.6,8.9c-0.5,0.4-0.9,0.7-1.4,1.1
			c-1.5-1.9-6.1-7.4-10.9-11.7c-4.2-3.8-10.6-6.6-10.7-6.7s-0.3,0-0.4,0.1s-0.1,0.3,0,0.4s7.2,6.7,11.5,10.9
			c3.5,3.5,6.9,7.3,8.3,8.9c-0.4,0.4-0.8,0.8-1.2,1.3c-2.1-2.2-8.7-8.9-13.5-11.4c-3.1-1.6-6.9-2.9-7-2.9s-0.3,0-0.3,0.1
			c-0.1,0.1,0,0.3,0.1,0.4c0.1,0.1,7.6,5.9,11.5,9.3c2.9,2.5,6,5.4,7.4,6.7c-0.4,0.4-0.7,0.9-1.1,1.4c-1.8-1.5-6.4-5.3-10.3-7
			c-3.2-1.4-7.2-2.2-7.3-2.2c-0.1,0-0.3,0.1-0.3,0.2c0,0.1,0,0.3,0.1,0.3s5.5,3.3,8.1,5.1s6.5,4.8,7.9,5.9c-0.4,0.6-0.7,1.1-1.1,1.7
			c-0.6-0.4-1.4-0.9-3.6-1.9c-5.5-2.6-10.3-3.1-10.4-3.1s-0.3,0.1-0.3,0.2c0,0.1,0,0.3,0.2,0.3c0,0,2.1,0.8,8.2,4
			c2.7,1.4,4,2.2,4.8,2.6c-0.2,0.5-0.5,0.9-0.7,1.4c-1.2-0.5-2.8-1-4.7-1.6c-1.4-0.4-4.4-0.5-4.6-0.5c-0.1,0-0.3,0.1-0.3,0.2
			c0,0.1,0.1,0.3,0.2,0.3c0,0,3.4,1.2,5,1.9l3.5,1.6c-0.2,0.4-0.3,0.8-0.5,1.1c-0.6-0.3-1.5-0.6-3.5-1.2c-5.8-1.7-10.7-1.4-10.7-1.4
			c-0.1,0-0.3,0.1-0.3,0.3c0,0.1,0.1,0.3,0.2,0.3c0,0,2.2,0.4,8.7,2.6c2.4,0.8,3.9,1.3,4.7,1.7c-0.2,0.6-0.4,1.2-0.6,1.8
			c-1.8-0.5-4.3-1-7.6-1.4c-5.6-0.8-10.7-0.2-10.7-0.2c-0.1,0-0.3,0.1-0.3,0.3c0,0.1,0.1,0.3,0.2,0.3L28,67.9
			c3.5,0.7,5.9,1.3,7.3,1.7c-0.1,0.5-0.2,1.1-0.3,1.6c-2.8-0.4-8-0.9-12.1-1.1c-5.6-0.3-11.6,1.1-11.7,1.1S11,71.4,11,71.5
			c0,0.1,0.1,0.3,0.3,0.3c0.1,0,6.3,0.4,13.1,1.2c4.1,0.5,8,1.1,10.2,1.4c-0.1,0.6-0.1,1.2-0.2,1.8c-2.9-0.3-9.4-0.8-15.2-0.5
			C13.5,75.9,7,78.5,6.9,78.6c-0.1,0.1-0.2,0.2-0.2,0.3c0,0.1,0.2,0.2,0.3,0.2c0.1,0,9.9-0.4,15.8-0.4c4.5,0,9,0.2,11.4,0.4
			c0,0.1,0,0.1,0,0.2c0,0.5,0,1.1,0,1.6c-3.6-0.1-12,0-16.9,1.5c-3.3,1.1-7,2.8-7,2.9c-0.1,0.1-0.2,0.2-0.1,0.3
			c0,0.1,0.2,0.2,0.3,0.2c0.1,0,9.5-1.2,14.7-1.6c3.4-0.3,7.1-0.4,9.2-0.5c0.1,0.6,0.1,1.2,0.2,1.8c-2.7,0.3-7.9,0.9-11.5,2.2
			c-3.3,1.2-6.7,3.6-6.7,3.6c-0.1,0.1-0.2,0.2-0.1,0.4c0.1,0.1,0.2,0.2,0.3,0.2c0.1,0,6.3-1.6,9.3-2.1c2.8-0.5,7-1.1,9.1-1.4
			c0.1,0.6,0.3,1.2,0.4,1.8h-0.3c-1.1,0.2-1.6,0.2-4.6,1.3c-5.7,2-9.5,5.1-9.6,5.1c-0.1,0.1-0.1,0.3-0.1,0.4
			c0.1,0.1,0.2,0.2,0.4,0.1c0,0,2.1-0.9,8.6-3c5.3-1.7,6-1.7,6.1-1.7c0,0,0,0,0.1,0c0.1,0.4,0.3,0.9,0.4,1.3c-1.3,0.5-3,1.4-5.4,2.6
			c-1.3,0.7-3.5,2.8-3.6,2.9s-0.1,0.3,0,0.4s0.2,0.2,0.4,0.1c0,0,3.2-1.5,4.8-2.2l4.5-1.7c0.2,0.4,0.3,0.8,0.5,1.2
			c-0.9,0.3-1.5,0.5-4.2,2c-5.3,2.9-8.6,6.5-8.6,6.6c-0.1,0.1-0.1,0.3,0,0.4s0.3,0.1,0.4,0c0,0,1.9-1.3,8-4.3
			c3.5-1.7,4.9-2.3,5.4-2.5c0.3,0.5,0.5,1.1,0.8,1.6c-1.7,0.9-4.1,2.5-7.2,4.8c-4.5,3.4-7.7,7.4-7.7,7.4c-0.1,0.1-0.1,0.3,0,0.4
			s0.3,0.1,0.4,0l8.8-5.8c3.7-2.5,6.1-3.9,7.2-4.5c0.3,0.4,0.5,0.9,0.8,1.3c-2,1.5-6.6,5.3-10.1,8.4c-4.2,3.8-7.5,9-7.5,9
			c-0.1,0.1,0,0.3,0.1,0.4s0.3,0.1,0.4,0c0,0,4.8-4.2,10.1-8.4c3.7-3,7.4-5.6,9-6.7c0.4,0.5,0.7,0.9,1.1,1.4
			c-1.8,1.4-7.4,6.1-11.9,11c-3.8,4.2-6.6,10.6-6.7,10.7c-0.1,0.1,0,0.3,0.1,0.4c0.1,0.1,0.3,0.1,0.4,0s6.7-7.2,10.9-11.5
			c3.6-3.6,7.5-7.1,9-8.4c0.4,0.4,0.8,0.8,1.3,1.2c-2,1.9-8.9,8.7-11.5,13.6c-1.6,3.1-2.9,6.9-2.9,7s0,0.3,0.1,0.3
			c0.1,0.1,0.3,0,0.4-0.1s5.9-7.6,9.3-11.5c2.6-3,5.5-6.2,6.8-7.5c0.4,0.4,0.9,0.7,1.4,1.1c-1.5,1.7-5.3,6.5-7.1,10.4
			c-1.4,3.2-2.2,7.2-2.2,7.3s0.1,0.3,0.2,0.3s0.3,0,0.3-0.1s3.3-5.5,5.1-8.1c1.8-2.7,4.9-6.7,6-8c0.6,0.4,1.1,0.7,1.7,1.1
			c-0.5,0.7-0.9,1.3-2,3.7c-2.6,5.5-3.1,10.3-3.1,10.4c0,0.1,0.1,0.3,0.2,0.3s0.3,0,0.3-0.2c0,0,0.8-2.1,4-8.2
			c1.5-2.8,2.3-4.2,2.7-4.9c0.4,0.2,0.9,0.5,1.3,0.7c-0.5,1.2-1,2.8-1.6,4.9c-0.4,1.4-0.5,4.4-0.5,4.6c0,0.1,0.1,0.3,0.2,0.3
			s0.3-0.1,0.3-0.2c0,0,1.2-3.4,1.9-5l1.7-3.7c0.4,0.2,0.8,0.3,1.1,0.5c-0.3,0.6-0.6,1.5-1.2,3.6c-1.7,5.8-1.4,10.7-1.4,10.7
			c0,0.1,0.1,0.3,0.3,0.3c0.1,0,0.3-0.1,0.3-0.2c0,0,0.4-2.2,2.6-8.7c0.8-2.6,1.4-4,1.7-4.8c0.6,0.2,1.2,0.4,1.8,0.6
			c-0.5,1.8-1,4.4-1.5,7.7c-0.8,5.6-0.2,10.7-0.2,10.7c0,0.1,0.1,0.3,0.3,0.3c0.1,0,0.3-0.1,0.3-0.2l2.1-10.3c0.7-3.6,1.3-6,1.7-7.5
			c0.5,0.1,1.1,0.2,1.6,0.3c-0.4,2.8-0.9,8-1.1,12.3c-0.3,5.6,1.1,11.6,1.1,11.7c0,0.1,0.2,0.2,0.3,0.2s0.3-0.1,0.3-0.3
			c0-0.1,0.4-6.3,1.2-13.1c0.5-4.1,1.1-8.1,1.5-10.3c0.6,0.1,1.2,0.1,1.8,0.2c-0.3,2.9-0.8,9.4-0.6,15.3c0.2,5.7,2.8,12.2,2.9,12.3
			c0.1,0.1,0.2,0.2,0.3,0.2s0.2-0.2,0.2-0.3s-0.4-9.9-0.4-15.8c0-4.5,0.2-9.1,0.4-11.5c0.1,0,0.2,0,0.3,0c0.5,0,1,0,1.5,0
			c-0.1,3.5,0,12.1,1.5,17c1.1,3.3,2.8,7,2.9,7c0.1,0.1,0.2,0.2,0.3,0.2s0.2-0.2,0.2-0.3s-1.2-9.5-1.6-14.7
			c-0.3-3.4-0.4-7.2-0.5-9.3c0.6-0.1,1.2-0.1,1.8-0.2c0.2,2.7,0.9,8,2.3,11.6c1.2,3.3,3.6,6.7,3.6,6.7c0.1,0.1,0.2,0.2,0.4,0.1
			c0.1-0.1,0.2-0.2,0.2-0.3s-1.6-6.3-2.1-9.3c-0.5-2.8-1.1-7-1.4-9.2c0.5-0.1,1-0.2,1.6-0.4c0.1,1,0.2,1.6,1.3,4.5
			c2,5.7,5.1,9.5,5.1,9.6c0.1,0.1,0.3,0.1,0.4,0.1c0.1-0.1,0.2-0.2,0.1-0.4c0,0-0.9-2.1-3-8.6c-1.2-3.8-1.5-5.2-1.6-5.8
			c0.5-0.1,0.9-0.3,1.4-0.4c0.5,1.2,1.3,2.9,2.5,5c0.7,1.3,2.8,3.5,2.9,3.6c0.1,0.1,0.3,0.1,0.4,0c0.1-0.1,0.2-0.2,0.1-0.4
			c0,0-1.5-3.2-2.2-4.8l-1.6-4.2c0.4-0.1,0.8-0.3,1.1-0.5c0.3,0.8,0.6,1.5,1.8,3.8c2.9,5.3,6.5,8.6,6.6,8.6c0.1,0.1,0.3,0.1,0.4,0
			c0.1-0.1,0.1-0.3,0-0.4c0,0-1.3-1.9-4.3-8c-1.4-2.8-2.1-4.3-2.4-5c0.6-0.3,1.1-0.5,1.6-0.8c0.9,1.7,2.4,3.9,4.6,6.8
			c3.4,4.5,7.4,7.7,7.4,7.7c0.1,0.1,0.3,0.1,0.4,0c0.1-0.1,0.1-0.3,0-0.4l-5.8-8.8c-2.2-3.3-3.6-5.6-4.3-6.8
			c0.4-0.3,0.9-0.6,1.3-0.9c1.6,2.2,5.2,6.5,8.1,9.8c3.8,4.2,9,7.5,9,7.5c0.1,0.1,0.3,0,0.4-0.1c0.1-0.1,0.1-0.3,0-0.4
			c0,0-4.2-4.8-8.4-10.1c-2.8-3.5-5.2-6.9-6.5-8.6c0.5-0.4,0.9-0.8,1.4-1.1c1.7,2.1,6.1,7.3,10.7,11.5c4.2,3.8,10.6,6.6,10.7,6.7
			c0.1,0.1,0.3,0,0.4-0.1c0.1-0.1,0.1-0.3,0-0.4c-0.1-0.1-7.2-6.7-11.5-10.9c-3.4-3.4-6.6-6.9-8.1-8.7c0.4-0.4,0.8-0.8,1.2-1.3
			c2.3,2.4,8.6,8.7,13.3,11.1c3.1,1.6,6.9,2.9,7,2.9s0.3,0,0.3-0.1c0.1-0.1,0-0.3-0.1-0.4s-7.6-5.9-11.5-9.3c-2.8-2.3-5.7-5-7.1-6.4
			c0.4-0.4,0.7-0.9,1.1-1.4c2,1.6,6.3,5.1,10,6.8c3.2,1.4,7.2,2.2,7.3,2.2s0.3-0.1,0.3-0.2s0-0.3-0.1-0.3s-5.5-3.3-8.1-5.1
			c-2.4-1.7-6-4.4-7.7-5.7c0.4-0.6,0.7-1.1,1.1-1.7c0.6,0.4,1.4,0.8,3.3,1.7c5.5,2.6,10.3,3.1,10.4,3.1c0.1,0,0.3-0.1,0.3-0.2
			s0-0.3-0.2-0.3c0,0-2.1-0.8-8.2-4c-2.3-1.2-3.7-2-4.4-2.4c0.3-0.5,0.5-0.9,0.7-1.4c1.1,0.4,2.6,0.9,4.4,1.4
			c1.4,0.4,4.4,0.5,4.6,0.5c0.1,0,0.3-0.1,0.3-0.2s-0.1-0.3-0.2-0.3c0,0-3.4-1.2-5-1.9l-3.2-1.5c0.2-0.4,0.3-0.8,0.5-1.1
			c0.6,0.2,1.5,0.5,3.1,1c5.8,1.7,10.7,1.4,10.7,1.4c0.1,0,0.3-0.1,0.3-0.3c0-0.1-0.1-0.3-0.2-0.3c0,0-2.2-0.4-8.7-2.6
			c-2.1-0.7-3.5-1.2-4.4-1.5c0.2-0.6,0.4-1.2,0.6-1.8c1.8,0.5,4.2,0.9,7.2,1.3c5.6,0.8,10.7,0.2,10.7,0.2c0.1,0,0.3-0.1,0.3-0.3
			c0-0.1-0.1-0.3-0.2-0.3L129.1,91c-3.2-0.6-5.5-1.2-7-1.6c0.1-0.5,0.2-1.1,0.3-1.6c2.9,0.4,7.8,0.8,11.8,1.1
			c5.6,0.3,11.6-1.1,11.7-1.1c0.1,0,0.2-0.2,0.2-0.3c0-0.1-0.1-0.3-0.3-0.3c-0.1,0-6.3-0.4-13.1-1.2c-3.9-0.4-7.6-1-9.9-1.4
			c0.1-0.6,0.1-1.2,0.2-1.9c3.1,0.3,9.2,0.7,14.9,0.5s12.2-2.8,12.3-2.9s0.2-0.2,0.2-0.3C150.6,79.3,150.5,79.2,150.4,79.2z"/>
	</g>
	<g>
		<line class="st2" x1="64.2" y1="94.6" x2="64.2" y2="51.3"/>
		<line class="st2" x1="67.6" y1="50.3" x2="67.6" y2="93.7"/>
		<line class="st2" x1="71.3" y1="49.8" x2="71.3" y2="93.4"/>
		<line class="st2" x1="75.4" y1="49.6" x2="75.4" y2="93.2"/>
		<line class="st2" x1="79.6" y1="49.5" x2="79.6" y2="93.1"/>
		<line class="st2" x1="83.6" y1="49.9" x2="83.6" y2="93.4"/>
		<line class="st2" x1="87.7" y1="50" x2="87.7" y2="94"/>
		<line class="st2" x1="91.4" y1="51.1" x2="91.4" y2="95"/>
	</g>
</g>
</svg>
