<svg width="14" height="14" viewBox="0 0 14 14" fill="none" xmlns="http://www.w3.org/2000/svg">
<g id="comment-regular 1" clip-path="url(#clip0_12_138)">
<path id="Vector" d="M7.00011 1C3.1337 1 0.000105771 3.5457 0.000105771 6.6875C0.000105771 7.98906 0.544246 9.18125 1.44659 10.141C1.03917 11.2184 0.191512 12.1316 0.17784 12.1426C-0.0026286 12.334 -0.0518474 12.6129 0.0520589 12.8535C0.155965 13.0941 0.393856 13.25 0.656356 13.25C2.338 13.25 3.66417 12.5473 4.45987 11.984C5.25011 12.2328 6.10323 12.375 7.00011 12.375C10.8665 12.375 14.0001 9.8293 14.0001 6.6875C14.0001 3.5457 10.8665 1 7.00011 1ZM7.00011 11.0625C6.27003 11.0625 5.54815 10.9504 4.85636 10.7316L4.23565 10.5348L3.70245 10.9121C3.31143 11.1883 2.7755 11.4973 2.13018 11.7051C2.32979 11.3742 2.52393 11.0023 2.67432 10.6059L2.96417 9.8375L2.40089 9.24141C1.90597 8.71367 1.31261 7.84141 1.31261 6.6875C1.31261 4.27578 3.86378 2.3125 7.00011 2.3125C10.1364 2.3125 12.6876 4.27578 12.6876 6.6875C12.6876 9.09922 10.1364 11.0625 7.00011 11.0625Z" fill="#9F5924"/>
</g>
<defs>
<clipPath id="clip0_12_138">
<rect width="14" height="14" fill="white"/>
</clipPath>
</defs>
</svg>
