<svg width="14" height="14" viewBox="0 0 14 14" fill="none" xmlns="http://www.w3.org/2000/svg">
<g id="thumbs-up-regular 1" clip-path="url(#clip0_12_135)">
<path id="Vector" d="M12.7504 7.83945C12.9883 7.43203 13.125 7 13.125 6.47773C13.125 5.27461 12.1078 4.13711 10.7789 4.13711H9.78086C9.91484 3.78711 10.0242 3.36875 10.0242 2.86563C10.0242 0.872266 8.99336 0 7.41836 0C5.73398 0 5.82969 2.59492 5.45508 2.96953C4.83437 3.59023 4.09883 4.78516 3.57383 5.25H0.875C0.391016 5.25 0 5.64102 0 6.125V12.6875C0 13.1715 0.391016 13.5625 0.875 13.5625H2.625C3.03242 13.5625 3.37422 13.2836 3.47266 12.9062C4.68945 12.9336 5.52617 13.9973 8.33437 13.9973C8.53125 13.9973 8.75 13.9973 8.94141 13.9973C11.0496 13.9973 12.0039 12.9199 12.0285 11.3914C12.3922 10.8883 12.5836 10.2129 12.5016 9.55937C12.7723 9.05352 12.8762 8.45742 12.7477 7.83672L12.7504 7.83945ZM11.0605 9.31055C11.4051 9.8875 11.0961 10.6613 10.6805 10.8855C10.891 12.2199 10.1992 12.6875 9.22852 12.6875H8.19492C6.23711 12.6875 4.96836 11.6539 3.50273 11.6539V6.5625H3.80078C4.57734 6.5625 5.66016 4.62383 6.38477 3.89648C7.16133 3.11992 6.90156 1.8293 7.41836 1.3125C8.71172 1.3125 8.71172 2.21484 8.71172 2.86289C8.71172 3.93477 7.93516 4.41328 7.93516 5.44688H10.7789C11.3559 5.44688 11.8098 5.96367 11.8125 6.48047C11.8152 6.99727 11.4625 7.51406 11.2027 7.51406C11.5719 7.91328 11.6512 8.75 11.0605 9.30781V9.31055ZM2.40625 11.8125C2.40625 12.1762 2.11367 12.4688 1.75 12.4688C1.38633 12.4688 1.09375 12.1762 1.09375 11.8125C1.09375 11.4488 1.38633 11.1562 1.75 11.1562C2.11367 11.1562 2.40625 11.4488 2.40625 11.8125Z" fill="#047422"/>
</g>
<defs>
<clipPath id="clip0_12_135">
<rect width="14" height="14" fill="white"/>
</clipPath>
</defs>
</svg>
